##     ## ##     ##  ######  ########    ###    ##    ##  ######   ##     ## 
###   ### ##     ## ##    ##    ##      ## ##   ###   ## ##    ##   ##   ##  
#### #### ##     ## ##          ##     ##   ##  ####  ## ##          ## ##   
## ### ## ##     ##  ######     ##    ##     ## ## ## ## ##   ####    ###    
##     ## ##     ##       ##    ##    ######### ##  #### ##    ##    ## ##   
##     ## ##     ## ##    ##    ##    ##     ## ##   ### ##    ##   ##   ##  
##     ##  #######   ######     ##    ##     ## ##    ##  ######   ##     ## 

 Video
 ID : 0
 Format : MPEG-4 Visual
 Format profile : Advanced Simple@L5
 Format settings, BVOP : Yes
 Format settings, QPel : No
 Format settings, GMC : No warppoints
 Format settings, Matrix : Default (H.263)
 Muxing mode : Packed bitstream
 Codec ID : XVID
 Codec ID/Hint : XviD
 Duration : 1h 44mn
 Bit rate : 821 Kbps
 Width : 720 pixels
 Height : 288 pixels
 Display aspect ratio : 2.500
 Frame rate : 23.976 fps
 Color space : YUV
 Chroma subsampling : 4:2:0
 Bit depth : 8 bits
 Scan type : Progressive
 Bits/(Pixel*Frame) : 0.165
 Stream size : 615 MiB (88%)
 Writing library : XviD 57


 Audio
 ID : 1
 Format : MPEG Audio
 Format version : Version 1
 Format profile : Layer 3
 Mode : Joint stereo
 Mode extension : MS Stereo
 Codec ID : 55
 Codec ID/Hint : MP3
 Duration : 1h 44mn
 Bit rate mode : Variable
 Bit rate : 100 Kbps
 Nominal bit rate : 112 Kbps
 Channel(s) : 2 channels
 Sampling rate : 48.0 KHz
 Stream size : 75.3 MiB (11%)
 Alignment : Aligned on interleaves
 Interleave, duration : 24 ms (0.58 video frame)
 Interleave, preload duration : 244 ms
 Writing library : LAME3.97 
 Encoding settings : -m j -V 4 -q 2 -lowpass 16 --abr 112


 IMDB  http://www.imdb.com/title/tt1613062/

 Shout out to all my friends @ 1337x.org and extratorrent


 Screens:  http://leetleech.org/images/67633694618437601897.jpg


##     ## ##     ##  ######  ########    ###    ##    ##  ######   ##     ## 
###   ### ##     ## ##    ##    ##      ## ##   ###   ## ##    ##   ##   ##  
#### #### ##     ## ##          ##     ##   ##  ####  ## ##          ## ##   
## ### ## ##     ##  ######     ##    ##     ## ## ## ## ##   ####    ###    
##     ## ##     ##       ##    ##    ######### ##  #### ##    ##    ## ##   
##     ## ##     ## ##    ##    ##    ##     ## ##   ### ##    ##   ##   ##  
##     ##  #######   ######     ##    ##     ## ##    ##  ######   ##     ## 